<mxfile host="65bd71144e">
    <diagram id="XUkC10P9UKExEpTaKwtw" name="Page-1">
        <mxGraphModel dx="778" dy="691" grid="1" gridSize="10" guides="1" tooltips="1" connect="1" arrows="1" fold="1" page="1" pageScale="1" pageWidth="850" pageHeight="1100" background="#ffffff" math="0" shadow="0">
            <root>
                <mxCell id="0"/>
                <mxCell id="1" parent="0"/>
                <mxCell id="10" value="http GET" style="edgeStyle=none;html=1;exitX=1;exitY=0.5;exitDx=0;exitDy=0;entryX=0;entryY=0.5;entryDx=0;entryDy=0;strokeWidth=2;fontSize=14;strokeColor=#36393d;fillColor=#f9f7ed;labelBackgroundColor=#fcfcfd;fontColor=#171616;" edge="1" parent="1" source="2" target="3">
                    <mxGeometry relative="1" as="geometry">
                        <mxPoint as="offset"/>
                    </mxGeometry>
                </mxCell>
                <mxCell id="2" value="PC" style="rounded=0;whiteSpace=wrap;html=1;strokeWidth=2;fontSize=14;strokeColor=#666666;fillColor=#f5f5f5;fontColor=#333333;" vertex="1" parent="1">
                    <mxGeometry x="230" y="240" width="120" height="60" as="geometry"/>
                </mxCell>
                <mxCell id="9" value="gcode (Marlin)" style="edgeStyle=none;html=1;exitX=0.5;exitY=1;exitDx=0;exitDy=0;entryX=0.5;entryY=0;entryDx=0;entryDy=0;strokeWidth=2;fontSize=14;strokeColor=#36393d;fillColor=#f9f7ed;labelBackgroundColor=#fcfcfd;fontColor=#171616;" edge="1" parent="1" source="3" target="5">
                    <mxGeometry relative="1" as="geometry"/>
                </mxCell>
                <mxCell id="3" value="Raspberry Pi" style="rounded=0;whiteSpace=wrap;html=1;strokeWidth=2;fontSize=14;strokeColor=#666666;fillColor=#f5f5f5;fontColor=#333333;" vertex="1" parent="1">
                    <mxGeometry x="450" y="240" width="120" height="60" as="geometry"/>
                </mxCell>
                <mxCell id="8" value="ustreamer" style="edgeStyle=none;html=1;exitX=0.5;exitY=1;exitDx=0;exitDy=0;entryX=0.5;entryY=0;entryDx=0;entryDy=0;strokeWidth=2;fontSize=14;strokeColor=#36393d;fillColor=#f9f7ed;labelBackgroundColor=#fcfcfd;fontColor=#171616;" edge="1" parent="1" source="4" target="3">
                    <mxGeometry relative="1" as="geometry">
                        <mxPoint as="offset"/>
                    </mxGeometry>
                </mxCell>
                <mxCell id="4" value="Microscope" style="rounded=0;whiteSpace=wrap;html=1;strokeWidth=2;fontSize=14;strokeColor=#666666;fillColor=#f5f5f5;fontColor=#333333;" vertex="1" parent="1">
                    <mxGeometry x="450" y="120" width="120" height="60" as="geometry"/>
                </mxCell>
                <mxCell id="5" value="3D printer" style="rounded=0;whiteSpace=wrap;html=1;strokeWidth=2;fontSize=14;strokeColor=#666666;fillColor=#f5f5f5;fontColor=#333333;" vertex="1" parent="1">
                    <mxGeometry x="450" y="360" width="120" height="60" as="geometry"/>
                </mxCell>
                <mxCell id="12" value="Bluetooth" style="edgeStyle=none;html=1;exitX=0.5;exitY=0;exitDx=0;exitDy=0;strokeWidth=2;fontSize=14;dashed=1;strokeColor=#36393d;fillColor=#f9f7ed;labelBackgroundColor=#fcfcfd;fontColor=#171616;" edge="1" parent="1" source="11" target="2">
                    <mxGeometry relative="1" as="geometry"/>
                </mxCell>
                <mxCell id="11" value="Console&lt;br&gt;controller" style="rounded=0;whiteSpace=wrap;html=1;strokeWidth=2;fontSize=14;strokeColor=#666666;fillColor=#f5f5f5;fontColor=#333333;" vertex="1" parent="1">
                    <mxGeometry x="230" y="360" width="120" height="60" as="geometry"/>
                </mxCell>
            </root>
        </mxGraphModel>
    </diagram>
</mxfile>